HIERARCHY
ROOT Hips
{
	OFFSET -14.64140 90.27770 -84.91600
	CHANNELS 6 Xposition Yposition Zposition Zrotation Xrotation Yrotation
	JOINT Spine
	{
		OFFSET 0.00000 13.20850 -1.60436
		CHANNELS 3 Zrotation Xrotation Yrotation
		JOINT Spine1
		{
			OFFSET 0.00000 8.61716 0.00000
			CHANNELS 3 Zrotation Xrotation Yrotation
			JOINT Spine2
			{
				OFFSET 0.00000 8.61717 0.00000
				CHANNELS 3 Zrotation Xrotation Yrotation
				JOINT Spine3
				{
					OFFSET 0.00000 8.61717 0.00000
					CHANNELS 3 Zrotation Xrotation Yrotation
					JOINT Neck
					{
						OFFSET 0.00000 11.07920 1.10792
						CHANNELS 3 Zrotation Xrotation Yrotation
						JOINT Neck1
						{
							OFFSET 0.00000 7.08032 0.00000
							CHANNELS 3 Zrotation Xrotation Yrotation
							JOINT Head
							{
								OFFSET 0.00000 7.08031 0.00000
								CHANNELS 3 Zrotation Xrotation Yrotation
								End site
								{
									OFFSET 0.00000 0.00000 0.00000
								}
							}
						}
					}
					JOINT RightShoulder
					{
						OFFSET -0.01000 7.91373 5.19711
						CHANNELS 3 Zrotation Xrotation Yrotation
						JOINT RightArm
						{
							OFFSET -18.41580 0.00000 0.00000
							CHANNELS 3 Zrotation Xrotation Yrotation
							JOINT RightForeArm
							{
								OFFSET -29.11090 0.00000 0.00000
								CHANNELS 3 Zrotation Xrotation Yrotation
								JOINT RightHand
								{
									OFFSET -24.65040 0.00000 0.00000
									CHANNELS 3 Zrotation Xrotation Yrotation
									JOINT RightHandThumb1
									{
										OFFSET -5.35114 -0.85590 3.97906
										CHANNELS 3 Zrotation Xrotation Yrotation
										JOINT RightHandThumb2
										{
											OFFSET -4.52789 0.00000 0.00000
											CHANNELS 3 Zrotation Xrotation Yrotation
											JOINT RightHandThumb3
											{
												OFFSET -2.46976 0.00000 0.00000
												CHANNELS 3 Zrotation Xrotation Yrotation
												End site
												{
													OFFSET 0.00000 0.00000 0.00000
												}
											}
										}
									}
									JOINT RightHandIndex1
									{
										OFFSET -14.26970 0.00000 2.88139
										CHANNELS 3 Zrotation Xrotation Yrotation
										JOINT RightHandIndex2
										{
											OFFSET -5.48836 0.00000 0.00000
											CHANNELS 3 Zrotation Xrotation Yrotation
											JOINT RightHandIndex3
											{
												OFFSET -3.01859 0.00000 0.00000
												CHANNELS 3 Zrotation Xrotation Yrotation
												End site
												{
													OFFSET 0.00000 0.00000 0.00000
												}
											}
										}
									}
									JOINT RightHandMiddle1
									{
										OFFSET -14.26970 0.00000 -0.09147
										CHANNELS 3 Zrotation Xrotation Yrotation
										JOINT RightHandMiddle2
										{
											OFFSET -6.17441 0.00000 0.00000
											CHANNELS 3 Zrotation Xrotation Yrotation
											JOINT RightHandMiddle3
											{
												OFFSET -3.56743 0.00000 0.00000
												CHANNELS 3 Zrotation Xrotation Yrotation
												End site
												{
													OFFSET 0.00000 0.00000 0.00000
												}
											}
										}
									}
									JOINT RightHandRing1
									{
										OFFSET -12.69180 0.00000 -3.06433
										CHANNELS 3 Zrotation Xrotation Yrotation
										JOINT RightHandRing2
										{
											OFFSET -5.62556 0.00000 0.00000
											CHANNELS 3 Zrotation Xrotation Yrotation
											JOINT RightHandRing3
											{
												OFFSET -3.56744 0.00000 0.00000
												CHANNELS 3 Zrotation Xrotation Yrotation
												End site
												{
													OFFSET 0.00000 0.00000 0.00000
												}
											}
										}
									}
									JOINT RightHandPinky1
									{
										OFFSET -11.11390 0.00000 -6.03719
										CHANNELS 3 Zrotation Xrotation Yrotation
										JOINT RightHandPinky2
										{
											OFFSET -4.52789 0.00000 0.00000
											CHANNELS 3 Zrotation Xrotation Yrotation
											JOINT RightHandPinky3
											{
												OFFSET -2.46976 0.00000 0.00000
												CHANNELS 3 Zrotation Xrotation Yrotation
												End site
												{
													OFFSET 0.00000 0.00000 0.00000
												}
											}
										}
									}
								}
							}
						}
					}
					JOINT LeftShoulder
					{
						OFFSET 0.01000 7.91373 5.19711
						CHANNELS 3 Zrotation Xrotation Yrotation
						JOINT LeftArm
						{
							OFFSET 18.41580 0.00000 0.00000
							CHANNELS 3 Zrotation Xrotation Yrotation
							JOINT LeftForeArm
							{
								OFFSET 29.11090 0.00000 0.00000
								CHANNELS 3 Zrotation Xrotation Yrotation
								JOINT LeftHand
								{
									OFFSET 24.65040 0.00000 0.00000
									CHANNELS 3 Zrotation Xrotation Yrotation
									JOINT LeftHandThumb1
									{
										OFFSET 5.35114 -0.85590 3.97906
										CHANNELS 3 Zrotation Xrotation Yrotation
										JOINT LeftHandThumb2
										{
											OFFSET 4.52789 0.00000 0.00000
											CHANNELS 3 Zrotation Xrotation Yrotation
											JOINT LeftHandThumb3
											{
												OFFSET 2.46977 0.00000 0.00000
												CHANNELS 3 Zrotation Xrotation Yrotation
												End site
												{
													OFFSET 0.00000 0.00000 0.00000
												}
											}
										}
									}
									JOINT LeftHandIndex1
									{
										OFFSET 14.26970 0.00000 2.88139
										CHANNELS 3 Zrotation Xrotation Yrotation
										JOINT LeftHandIndex2
										{
											OFFSET 5.48836 0.00000 0.00000
											CHANNELS 3 Zrotation Xrotation Yrotation
											JOINT LeftHandIndex3
											{
												OFFSET 3.01859 0.00000 0.00000
												CHANNELS 3 Zrotation Xrotation Yrotation
												End site
												{
													OFFSET 0.00000 0.00000 0.00000
												}
											}
										}
									}
									JOINT LeftHandMiddle1
									{
										OFFSET 14.26970 0.00000 -0.09147
										CHANNELS 3 Zrotation Xrotation Yrotation
										JOINT LeftHandMiddle2
										{
											OFFSET 6.17440 0.00000 0.00000
											CHANNELS 3 Zrotation Xrotation Yrotation
											JOINT LeftHandMiddle3
											{
												OFFSET 3.56744 0.00000 0.00000
												CHANNELS 3 Zrotation Xrotation Yrotation
												End site
												{
													OFFSET 0.00000 0.00000 0.00000
												}
											}
										}
									}
									JOINT LeftHandRing1
									{
										OFFSET 12.69180 0.00000 -3.06433
										CHANNELS 3 Zrotation Xrotation Yrotation
										JOINT LeftHandRing2
										{
											OFFSET 5.62556 0.00000 0.00000
											CHANNELS 3 Zrotation Xrotation Yrotation
											JOINT LeftHandRing3
											{
												OFFSET 3.56744 0.00000 0.00000
												CHANNELS 3 Zrotation Xrotation Yrotation
												End site
												{
													OFFSET 0.00000 0.00000 0.00000
												}
											}
										}
									}
									JOINT LeftHandPinky1
									{
										OFFSET 11.11390 0.00000 -6.03719
										CHANNELS 3 Zrotation Xrotation Yrotation
										JOINT LeftHandPinky2
										{
											OFFSET 4.52789 0.00000 0.00000
											CHANNELS 3 Zrotation Xrotation Yrotation
											JOINT LeftHandPinky3
											{
												OFFSET 2.46976 0.00000 0.00000
												CHANNELS 3 Zrotation Xrotation Yrotation
												End site
												{
													OFFSET 0.00000 0.00000 0.00000
												}
											}
										}
									}
								}
							}
						}
					}
					JOINT pCube4
					{
						OFFSET 0.00000 10.91090 1.10792
						CHANNELS 3 Zrotation Xrotation Yrotation
						End site
						{
							OFFSET 0.00000 0.00000 0.00000
						}
					}
				}
			}
		}
	}
	JOINT RightUpLeg
	{
		OFFSET -9.98441 0.00000 0.00000
		CHANNELS 3 Zrotation Xrotation Yrotation
		JOINT RightLeg
		{
			OFFSET 0.00000 -42.11790 0.00000
			CHANNELS 3 Zrotation Xrotation Yrotation
			JOINT RightFoot
			{
				OFFSET 0.00000 -45.00020 -0.00001
				CHANNELS 3 Zrotation Xrotation Yrotation
				JOINT RightForeFoot
				{
					OFFSET 0.00000 -3.74820 0.00000
					CHANNELS 3 Zrotation Xrotation Yrotation
					JOINT RightToeBase
					{
						OFFSET 0.00000 0.06325 14.43120
						CHANNELS 3 Zrotation Xrotation Yrotation
						End site
						{
							OFFSET 0.00000 0.00000 0.00000
						}
					}
				}
			}
		}
	}
	JOINT LeftUpLeg
	{
		OFFSET 9.98441 0.00000 0.00000
		CHANNELS 3 Zrotation Xrotation Yrotation
		JOINT LeftLeg
		{
			OFFSET 0.00000 -42.11800 0.00000
			CHANNELS 3 Zrotation Xrotation Yrotation
			JOINT LeftFoot
			{
				OFFSET 0.00000 -45.00070 0.00000
				CHANNELS 3 Zrotation Xrotation Yrotation
				JOINT LeftForeFoot
				{
					OFFSET 0.00000 -3.74824 0.00000
					CHANNELS 3 Zrotation Xrotation Yrotation
					JOINT LeftToeBase
					{
						OFFSET 0.00000 0.06325 14.43110
						CHANNELS 3 Zrotation Xrotation Yrotation
						End site
						{
							OFFSET 0.00000 0.00000 0.00000
						}
					}
				}
			}
		}
	}
}
MOTION
Frames: 4
Frame Time: 0.050000
-0.008972486595181156 -0.009657327502530655 0.033045531398665964 0.03511661211171695 0.0017283913907717144 0.026086288612523933 2.5809981760386873 3.661363580539383 -1.7560940780489873 -0.8260621643910457 3.605561972226763 0.3738766637170268 -0.7764060921635177 -1.0483608643266782 0.3721275945343709 -0.6202135504446303 -0.051716862614693056 -0.34428766449509274 -0.17888617775151794 10.5850382719064 -0.4600745928299388 0.3177661967689478 -2.1139999422242512 -1.5529309915455791 0.7742580419217232 -19.444270562676294 -0.25839657549097617 -7.276589828528711 2.834193531439615 -16.003713661556457 82.96081447875221 20.602594673216537 2.333807600972125 -8.370498469569077 0.4320635638579957 50.62316998799722 19.118017257904725 -0.2642149457579585 -3.147661424074485 4.558575126609332 -0.10768468201863184 -1.5539589145534403 0.008517235959650312 0.0032820276279861243 -56.23735945018534 0.006239186486003463 0.03549205155185156 -56.227763589923676 -38.75204763011038 -0.007108583580941852 -0.03272137183216402 -0.044768688866896035 0.0348277958442298 -0.011207880425736918 -0.028918934758598896 0.010991026401729793 -0.045287055629227774 -36.72482590575115 0.0384651522697685 -0.047710870473092484 -0.003163205607277678 -0.02343455257324588 0.04464620368899233 -0.0338525580194463 -0.03305715017806849 0.027544696447602067 -19.721251175835913 0.016596863013420816 0.043497980758159714 0.005567416258000699 0.04178474742637197 -0.026109047045402713 -0.02389808003870331 0.010119052676060144 -0.02184867422953742 24.09782699403234 -0.033965284729293464 -0.0431311543107132 28.866157427199738 -0.019743374757156613 0.0222077983579469 28.84395705306971 -0.012205235371365293 -0.004267951969334655 7.661814604118489 1.9461217760557943 13.537727702677124 -77.4219581700472 24.75357627656073 -8.503495286653374 -0.5071401178578058 -0.37076178981138413 -41.61989184250395 -19.93009878141256 -5.32526937859744 6.228557738692812 -0.47231093744459823 0.03797922177788911 -8.096668467586541 0.03646091050417356 0.03077506612866348 44.588902844612534 0.04020311161730802 -0.01984807899330072 44.58179525386158 12.488751731824381 0.029310995599076822 0.0009298475751657412 -0.029824796653409633 -0.01125492527142573 0.023807256743622 -0.016133271527252375 -0.0067908867794828475 0.01928892373422637 11.14902428487644 0.015127052169932277 -0.04303759881218306 0.007059324142148987 -0.0026558713281824714 -0.02545861667757867 -0.01767570982017857 -0.02045857803123659 -0.014223342128263082 4.797888752480018 0.04550468135291177 -0.018701875709529595 -0.021054145591979222 -0.02028420999721181 0.021805835914789656 -0.0438237520007381 -0.024866635448542167 -0.034349842795779156 -5.623665587382137 0.025046883645341966 -0.027208327379348553 -6.738972186183627 0.015001516115084672 0.0008388979833314818 -6.686052665429527 0.04616278314029746 -0.022201981797644172 -0.016586162847240994 -0.020089431282639274 -0.004959590547526814 8.036809557507452 3.5419115141954256 -19.22156465492354 0.013204251576678129 10.417276792906012 0.00040301678122422677 -5.5942159763994495 -15.68846083771116 3.1788342749736684 0.03043067115455363 0.02093590109568246 0.017171257308637337 -0.00122311955160213 4.717339242196068 -0.00624257201319236 12.447157772970415 -8.220085521224135 6.90353411899829 -0.024913187581753052 46.35740909941557 -0.030357560628486692 -4.345645182096503 -14.744787470345129 -3.8264986427062717 -0.032882135020116436 0.00837625843525153 0.04067848374449594 -0.009257535372775422 -10.746275178899985 0.045961631230422094 
-0.028535648372328956 0.03637081007068598 -0.04672427477345423 0.014069323131044136 -0.04947119127138126 0.020915508350563675 2.9323930228260005 3.704839299801844 -1.81540437073749 -0.8705879329306979 3.606253646210884 0.393995209007457 -0.742464178041959 -0.9982924162427128 0.4938109582495958 -0.5693127181176685 -0.1338932520960128 -0.3548146039412533 -0.1584005064415908 10.587829310828935 -0.5658227743745037 0.32785289039584065 -2.049236235639356 -1.7330849685903957 0.8577424826852619 -19.268341838314907 -0.2557425425289844 -7.481585176103451 2.9218714215581816 -16.21501312435024 83.21142434432376 20.68060473060136 2.3980075273027492 -9.124920359814157 -0.06665818970633014 50.97370641951061 18.89855478228955 -0.2629423458366618 -3.1965505361445326 4.552038308204375 -0.1723887878158599 -1.596837493551362 -0.047435741427945835 -0.005002688911138403 -56.2329363976177 -0.02741977028328616 -0.04518510733920364 -56.18718610341701 -38.80060617503219 -0.010118323840927953 -0.03483731542512085 -0.022243253660804412 0.02022020629305651 0.04620326079283583 0.003574861592227064 0.04203065806740986 -0.026531147691446114 -36.655370322738136 0.01395454164346898 0.031776753330679634 0.00824761410637217 0.03811624318453807 -0.03695558576219168 -0.027714277697833304 -0.011857694420281216 -0.03369557730709972 -19.75705994904789 0.04749934119131226 -0.012898908534483468 0.020131624629406403 0.04081622374954174 -0.023485021302928455 -0.04445077906287316 0.02539144687691268 0.008037173666885482 24.01018138029091 0.020600007799716127 -0.011808761857584602 28.886763463888048 -0.028325483886051203 0.006652278170736169 28.912448987978614 0.0025089620724630126 0.0324491721295683 7.800981485473623 1.983098718713365 13.667252153009342 -77.5194917436665 25.160631372910363 -8.511299119045034 -0.7637045004449228 -0.012572273088219822 -42.16166525753066 -20.518109351736346 -5.886600390591547 6.6161638108799075 -0.44619110222338204 0.0914938775152651 -8.096090805738449 -0.021574951220618734 0.00019719136408560844 44.564325294154585 0.009067611643049377 -0.03443489977314307 44.53924321276331 12.463243488010555 0.011824451343979693 0.00906803784736159 -0.045862270273552566 0.0321926814216285 0.032238389615580114 -0.04693409439522759 0.045656894432464214 -0.0055360257485347975 11.091868941602218 0.01935420275859297 0.03238017206250247 0.029227763769778953 -0.005422871597634756 -0.035729283434489036 0.04571953760809133 0.03434861687807325 -0.028067852377070508 4.733256041020292 0.009320704878521133 -0.0016989929588385117 -0.03754220877364462 -0.008387594397798535 -0.023467600048507356 -0.00293053016180621 -0.04570998383505839 -0.012105138892508286 -5.562852241047253 0.009147819491611102 -0.026915561509963368 -6.739862172904373 0.01549707861116836 0.0018777192825550904 -6.73337165153854 -0.04629102552744794 -0.042471013517092385 -0.03303620253708957 -0.049260020111661015 -0.03764480641709746 8.052785260228115 3.471980414570425 -19.23040096834468 -0.016246432838538473 10.394842207827262 0.03285796389101908 -5.571550481543562 -15.68246386960111 3.2185531369143723 0.008941602961756459 -0.039594588171171174 0.013539768025359916 0.03775412738818484 4.710429149743131 -0.0059199331159872255 12.50649336352263 -8.284613119413192 6.877051823719899 0.03585372200433067 46.38187850627996 0.04278228995454268 -4.2984652463148265 -14.756639080238099 -3.806882784450984 -0.014712272688960703 0.0019321143344872035 0.03420094461982565 -0.024279900064543152 -10.7121383974373 0.03538192690287537 
-0.02498272566517602 0.04323940874836532 -0.02249900125600832 -0.0398209386185784 0.01790259871658689 0.0339175966055978 3.063465182793943 3.6250107700156278 -1.8645084805533958 -0.8693160291186841 3.551224172095072 0.44823718073377083 -0.7904291469990197 -1.0073537247032383 0.5040491483452987 -0.5747283325386278 -0.0884675091826528 -0.38527685668439576 -0.1415738941274872 10.684821679695501 -0.5413686033717509 0.2643767665664548 -1.8967009713920218 -1.7945224451607091 0.8455921178800774 -19.127006286863427 -0.23002691000568154 -7.578045276781719 2.958879615215324 -16.380959265282627 83.48774010972595 20.949970974974022 2.5050145902295404 -9.447093387282232 -0.9521901327474089 50.39004459413028 18.66526045133858 -0.2708197079105193 -3.259782286199211 4.489987064687855 -0.1464951378719493 -1.6346524972039689 -0.010833493769931217 0.025029510558472735 -56.2038459038585 -0.016762757264116596 0.008291818832561314 -56.25807212312864 -38.76514115827146 -0.044625546754241734 -0.0432412408311104 0.0167601143501951 0.04753955649261724 0.012260146849796509 0.007812746482524377 0.034387976867487194 -0.02457617051973763 -36.65030865049799 0.018128948238106117 -0.025512917066728657 0.03166533153110445 -0.03693247627686732 -0.01653675401587055 0.027590063219123585 -0.03650515266603707 0.025639292504086662 -19.729966345433773 -0.04922999686559168 0.011457217815196055 -0.027853503365163748 -0.035345913907898485 -0.020506533952363994 0.019592894611370145 -0.0027787275557441212 0.0016108995418371663 24.05266369551155 -0.01631166465334507 0.045535708890031126 28.854505679600447 -0.030304020096705662 0.020065657390504157 28.911197885508546 0.035385481214020686 0.043693619279578474 7.814353951507828 1.9608478760507388 13.852516289118398 -77.55595075165583 25.44095620071182 -8.467645672954747 -0.7934527352857966 -0.24469981386833603 -42.101536286956744 -20.387861255826518 -6.106321864591399 6.737473954719613 -0.42994578149788004 0.039517376296536094 -8.111115377884273 0.00252420058601758 0.03139356789727787 44.61673163047986 0.0162725765668445 0.012020262524798023 44.5844023381933 12.412380615997433 0.023885032023105872 -0.027730820792332862 0.03116518202540544 0.04711238638089975 0.013727373401882145 0.0373237036998796 -0.006974498926261292 0.006984437556051931 11.08590793635897 0.014214919013320289 -0.04118606437614051 0.03082345860649312 -0.03749485228218625 -0.040807090556235395 0.031137284368045276 -0.01628339243393971 0.00587476330241488 4.768469350826878 0.026467171982884105 -0.02260719966864572 0.00946977143989982 -0.008405826494103609 0.010432160124662712 0.0324413590380033 -0.03671375368095333 -0.045751966766781685 -5.592215296165305 -0.01160357075157476 0.04337050228545525 -6.764933013887455 0.01643475694580368 0.025463168300511384 -6.766864219710906 0.0030351802009415747 0.0034489901717022317 0.011250190071312347 -0.013039716764168856 -0.008216255704824304 8.040229162743133 3.479594661728813 -19.195393976358513 -0.04653789053112059 10.408427727979792 0.041012205560025744 -5.611704982936294 -15.628892859896524 3.240506560821928 -0.009102464314393693 -0.016064206469128605 0.04034587040004634 0.006641689053880176 4.6611127801014245 -0.004635159297342414 12.434544845742161 -8.275138579260865 6.8961007284879035 -0.010317085581085806 46.38139431948237 -0.02636136547803765 -4.36716963692046 -14.7842194517943 -3.8310325119531288 0.005951657685934024 -0.036639991241698235 -0.04418726813924842 0.0017094295717089434 -10.724350008151122 -0.02278433972112855 
0.04561734937778533 -0.031087441898223347 -0.007540001738577807 0.011362532507545233 0.0045707981508258215 0.016704197471524563 3.1607272961246515 3.523587012925168 -1.8859177969685026 -0.8552608885252029 3.566477837583463 0.4454078061502432 -0.7536700791941406 -0.9284400753495228 0.5123787060416469 -0.5449976917317964 -0.04547665571565834 -0.3543614789484019 -0.2006374035397799 10.721214699313458 -0.5397559212306349 0.2648629814899657 -1.865047278575461 -1.614408636856443 0.8005011164466334 -18.970815202908764 -0.2271427736274169 -7.752165667485058 2.9327506437650253 -16.531890137187638 83.58408180260747 20.96074973963041 2.133536912711976 -8.977753028868197 -1.5917884799867987 48.73320499691744 18.49820204916104 -0.29765798054220527 -3.370066304515671 4.49318952809134 -0.09482471815012197 -1.5931609542788099 -0.008989144604512837 0.043060755939500726 -56.19675770084212 -0.04031846448909745 0.01648912588492231 -56.221669179595835 -38.743387834428475 0.04110839134266535 0.023637555969740376 0.011240777292487257 -0.001094897033113553 -0.024725312786833507 -0.011504512972710502 -0.02787189821958589 0.04791039249458339 -36.718735771214774 -0.04426973872093751 -0.02264610803385023 0.0351995970795952 -0.030265332291023836 0.021736817365902904 0.011678519774891148 -0.046401061917826836 -0.049168644557290975 -19.794581988953173 0.03448583249971313 -0.02394104232866734 0.04660773104733747 -0.007583659566119108 0.02358036433348159 -0.004320930540958081 0.025929433581561682 -0.02446582157957443 24.04254357651175 0.02325603053754095 0.023862927654225877 28.89354413205367 0.006429946075466836 0.017267177703715043 28.905406884987848 0.025745178255583607 0.00991198340847425 7.873028193896154 1.9655425325724734 13.943826481048287 -77.44783195239958 25.671912455337214 -8.077781271737651 0.06199927659172578 -0.9975573073110509 -41.291344236152604 -20.075064381718466 -5.767067419072386 6.573041807566207 -0.5009211514358506 0.08566706304635793 -8.093896887053404 0.012365471882622651 -0.04781619262447665 44.563685407569245 0.04867778844087325 -0.005316391096299228 44.53052507668226 12.447876975530814 0.03219682052168176 0.00922744218071472 -0.043395306563966764 0.04389408984127099 0.010574899030532842 -0.021728312219988118 0.04895096636774972 0.017590092677327397 11.096923555747471 -0.04990775987862377 0.02786532855458098 0.027018944187575257 0.047808619881330526 0.02576724697813086 0.03096766733220288 0.03834606709221994 0.01677005680786119 4.809506796995554 -0.0326626753835319 0.02171380837132871 0.027526814548050747 -0.007716131391770451 0.03855248581287221 0.03527402424407378 -0.017999503341119244 -0.004313203294111254 -5.594065302045447 -0.03102570643508802 0.02748131314887281 -6.721218718654341 0.01946493673774156 0.026574597486485017 -6.699322396997574 -0.009813075320161548 -0.011077957484895335 -0.00923488117681455 0.023396053573459613 -0.04188462266912672 8.015265798691114 3.5162559674737515 -19.1936685230357 0.001189404970275321 10.43022294570857 0.01025630104142217 -5.649989703272324 -15.674978528849326 3.1730595008405995 -0.02958036836068926 -0.013152531223485437 0.010367139772522422 -0.016817898299307205 4.707533162477164 0.010373536440919474 12.413987540717645 -8.22458794659463 6.891759155330157 -0.02738779656096795 46.39848751290829 -0.04679897373953211 -4.298688430973936 -14.721846452389146 -3.8307511372361374 0.03857123708203737 0.01037135146182272 0.01818687408806947 0.048004910194320106 -10.733006905460815 0.04209425691099419 
